<mxfile host="65bd71144e">
    <diagram id="HIP3nbAZw_EuaXWnEj3U" name="Page-1">
        <mxGraphModel dx="866" dy="853" grid="1" gridSize="10" guides="1" tooltips="1" connect="1" arrows="1" fold="1" page="1" pageScale="1" pageWidth="850" pageHeight="1100" background="#ffffff" math="0" shadow="0">
            <root>
                <mxCell id="0"/>
                <mxCell id="1" parent="0"/>
                <mxCell id="7" value="http://ics2o.mths.ca" style="swimlane;whiteSpace=wrap;html=1;shadow=1;" parent="1" vertex="1">
                    <mxGeometry x="40" y="40" width="550" height="380" as="geometry"/>
                </mxCell>
                <mxCell id="16" value="Formula is&lt;br style=&quot;font-size: 23px;&quot;&gt;°C = (°F - 32) x .5556" style="text;html=1;align=left;verticalAlign=middle;whiteSpace=wrap;rounded=0;strokeWidth=1;fontColor=#000000;fontSize=23;" parent="7" vertex="1">
                    <mxGeometry x="30" y="100" width="310" height="50" as="geometry"/>
                </mxCell>
                <mxCell id="17" value="Farenheit to Celceius" style="text;html=1;align=left;verticalAlign=middle;whiteSpace=wrap;rounded=0;strokeWidth=1;fontColor=#000000;fontSize=23;fontStyle=1" parent="7" vertex="1">
                    <mxGeometry x="30" y="40" width="310" height="30" as="geometry"/>
                </mxCell>
                <mxCell id="18" value="&lt;font style=&quot;font-size: 23px;&quot; color=&quot;#000000&quot;&gt;Calculate&lt;/font&gt;" style="rounded=1;whiteSpace=wrap;html=1;fillColor=#ffffff;strokeWidth=1;strokeColor=#000000;" parent="7" vertex="1">
                    <mxGeometry x="30" y="270" width="210" height="30" as="geometry"/>
                </mxCell>
                <mxCell id="19" value="Farenheit" style="text;html=1;strokeColor=none;fillColor=none;align=center;verticalAlign=middle;whiteSpace=wrap;rounded=0;strokeWidth=1;fontSize=18;fontColor=#000000;" parent="7" vertex="1">
                    <mxGeometry x="20" y="200" width="90" height="30" as="geometry"/>
                </mxCell>
                <mxCell id="25" value="Celceius" style="text;html=1;strokeColor=none;fillColor=none;align=center;verticalAlign=middle;whiteSpace=wrap;rounded=0;strokeWidth=1;fontSize=18;fontColor=#000000;" parent="7" vertex="1">
                    <mxGeometry y="328.13" width="200" height="30" as="geometry"/>
                </mxCell>
                <mxCell id="30" value="Please enter the temperature in farenheit" style="text;html=1;strokeColor=none;fillColor=none;align=center;verticalAlign=middle;whiteSpace=wrap;rounded=0;strokeWidth=1;fontSize=18;fontColor=#000000;" parent="7" vertex="1">
                    <mxGeometry y="160" width="380" height="30" as="geometry"/>
                </mxCell>
                <mxCell id="13" value="" style="rounded=1;whiteSpace=wrap;html=1;fillColor=#ffffff;strokeWidth=1;strokeColor=#000000;align=left;" parent="7" vertex="1">
                    <mxGeometry x="110" y="200" width="130" height="30" as="geometry"/>
                </mxCell>
                <mxCell id="31" value="" style="shape=image;verticalLabelPosition=bottom;labelBackgroundColor=default;verticalAlign=top;aspect=fixed;imageAspect=0;image=data:image/jpeg,/9j/4AAQSkZJRgABAQEBLAEsAAD/4QCxRXhpZgAASUkqAAgAAAABAA4BAgCPAAAAGgAAAAAAAABDbGFzc2ljIG91dGRvb3IgYW5kIGluZG9vciBjZWxzaXVzIGZhaHJlbmhlaXQgYWxjb2hvbCBldGhhbm9sIHJlZCBkeWUgdGhlcm1vbWV0ZXIgZm9yIG1ldGVvcm9sb2dpY2FsIG1lYXN1cmVtZW50cyByZWFsaXN0aWMgdmVjdG9yIGlsbHVzdHJhdGlvbv/hBbJodHRwOi8vbnMuYWRvYmUuY29tL3hhcC8xLjAvADw/eHBhY2tldCBiZWdpbj0i77u/IiBpZD0iVzVNME1wQ2VoaUh6cmVTek5UY3prYzlkIj8+Cjx4OnhtcG1ldGEgeG1sbnM6eD0iYWRvYmU6bnM6bWV0YS8iPgoJPHJkZjpSREYgeG1sbnM6cmRmPSJodHRwOi8vd3d3LnczLm9yZy8xOTk5LzAyLzIyLXJkZi1zeW50YXgtbnMjIj4KCQk8cmRmOkRlc2NyaXB0aW9uIHJkZjphYm91dD0iIiB4bWxuczpwaG90b3Nob3A9Imh0dHA6Ly9ucy5hZG9iZS5jb20vcGhvdG9zaG9wLzEuMC8iIHhtbG5zOklwdGM0eG1wQ29yZT0iaHR0cDovL2lwdGMub3JnL3N0ZC9JcHRjNHhtcENvcmUvMS4wL3htbG5zLyIgICB4bWxuczpHZXR0eUltYWdlc0dJRlQ9Imh0dHA6Ly94bXAuZ2V0dHlpbWFnZXMuY29tL2dpZnQvMS4wLyIgeG1sbnM6ZGM9Imh0dHA6Ly9wdXJsLm9yZy9kYy9lbGVtZW50cy8xLjEvIiB4bWxuczpwbHVzPSJodHRwOi8vbnMudXNlcGx1cy5vcmcvbGRmL3htcC8xLjAvIiAgeG1sbnM6aXB0Y0V4dD0iaHR0cDovL2lwdGMub3JnL3N0ZC9JcHRjNHhtcEV4dC8yMDA4LTAyLTI5LyIgeG1sbnM6eG1wUmlnaHRzPSJodHRwOi8vbnMuYWRvYmUuY29tL3hhcC8xLjAvcmlnaHRzLyIgcGhvdG9zaG9wOkNyZWRpdD0iR2V0dHkgSW1hZ2VzL2lTdG9ja3Bob3RvIiBHZXR0eUltYWdlc0dJRlQ6QXNzZXRJRD0iMTIwMTE5NDcxNCIgeG1wUmlnaHRzOldlYlN0YXRlbWVudD0iaHR0cHM6Ly93d3cuaXN0b2NrcGhvdG8uY29tL2xlZ2FsL2xpY2Vuc2UtYWdyZWVtZW50P3V0bV9tZWRpdW09b3JnYW5pYyZhbXA7dXRtX3NvdXJjZT1nb29nbGUmYW1wO3V0bV9jYW1wYWlnbj1pcHRjdXJsIiA+CjxkYzpjcmVhdG9yPjxyZGY6U2VxPjxyZGY6bGk+TWFjcm92ZWN0b3I8L3JkZjpsaT48L3JkZjpTZXE+PC9kYzpjcmVhdG9yPjxkYzpkZXNjcmlwdGlvbj48cmRmOkFsdD48cmRmOmxpIHhtbDpsYW5nPSJ4LWRlZmF1bHQiPkNsYXNzaWMgb3V0ZG9vciBhbmQgaW5kb29yIGNlbHNpdXMgZmFocmVuaGVpdCBhbGNvaG9sIGV0aGFub2wgcmVkIGR5ZSB0aGVybW9tZXRlciBmb3IgbWV0ZW9yb2xvZ2ljYWwgbWVhc3VyZW1lbnRzIHJlYWxpc3RpYyB2ZWN0b3IgaWxsdXN0cmF0aW9uPC9yZGY6bGk+PC9yZGY6QWx0PjwvZGM6ZGVzY3JpcHRpb24+CjxwbHVzOkxpY2Vuc29yPjxyZGY6U2VxPjxyZGY6bGkgcmRmOnBhcnNlVHlwZT0nUmVzb3VyY2UnPjxwbHVzOkxpY2Vuc29yVVJMPmh0dHBzOi8vd3d3LmlzdG9ja3Bob3RvLmNvbS9waG90by9saWNlbnNlLWdtMTIwMTE5NDcxNC0/dXRtX21lZGl1bT1vcmdhbmljJmFtcDt1dG1fc291cmNlPWdvb2dsZSZhbXA7dXRtX2NhbXBhaWduPWlwdGN1cmw8L3BsdXM6TGljZW5zb3JVUkw+PC9yZGY6bGk+PC9yZGY6U2VxPjwvcGx1czpMaWNlbnNvcj4KCQk8L3JkZjpEZXNjcmlwdGlvbj4KCTwvcmRmOlJERj4KPC94OnhtcG1ldGE+Cjw/eHBhY2tldCBlbmQ9InciPz4K/+0A3lBob3Rvc2hvcCAzLjAAOEJJTQQEAAAAAADBHAJQAAtNYWNyb3ZlY3RvchwCeACPQ2xhc3NpYyBvdXRkb29yIGFuZCBpbmRvb3IgY2Vsc2l1cyBmYWhyZW5oZWl0IGFsY29ob2wgZXRoYW5vbCByZWQgZHllIHRoZXJtb21ldGVyIGZvciBtZXRlb3JvbG9naWNhbCBtZWFzdXJlbWVudHMgcmVhbGlzdGljIHZlY3RvciBpbGx1c3RyYXRpb24cAm4AGEdldHR5IEltYWdlcy9pU3RvY2twaG90bwD/2wBDAAoHBwgHBgoICAgLCgoLDhgQDg0NDh0VFhEYIx8lJCIfIiEmKzcvJik0KSEiMEExNDk7Pj4+JS5ESUM8SDc9Pjv/2wBDAQoLCw4NDhwQEBw7KCIoOzs7Ozs7Ozs7Ozs7Ozs7Ozs7Ozs7Ozs7Ozs7Ozs7Ozs7Ozs7Ozs7Ozs7Ozs7Ozs7Ozv/wgARCAJkANMDAREAAhEBAxEB/8QAGwAAAgMBAQEAAAAAAAAAAAAAAAQBAgMFBgf/xAAaAQEBAAMBAQAAAAAAAAAAAAAAAQIDBAUG/9oADAMBAAIQAxAAAAH2YAAABBBQqVACSxYsSSAAAAAAAAQUFBeMAAAILG5vTBcuSAAAAAAVFRGINqZLkgQQZipjGw5WxoWAAAAAqIQmNU0SAEgQAAUEjOHKYNS4AAAVEIUH61AAAkCAAAIFxWG6YNiwABAmIQ/WoAAASBAAAAAuKw7W5qSAGZyYZpkAAAAkCAAAACRUxh2ti5JAgLnQAAAAAkCAAAACSDnw1W5sSVOTDFMAcM2LHUAgsWMiwHDGDE7RJIuLjpsXMjkx0qkDhgOj4FDQsYliThGx1wJJKCEO1saixz46NAAcw6YAUNCxiWJA5BQ7RJIHMhytzURModqAAAAChoWMSxIAAEkgc2Gq3NhApDlQAAAAVLljEsSAABJJJzYZrc2ECkOVAAACZkVOmXMSxIALGZmMDhzYZrc2ECkb0gAmMDZkBU6ZcWEyQJNBIYJOmc2Ga3NhApDdcsggudMAKlyxiWJADEVLDIwc2Ga3NhApDFLgbFBgTMip0y4qKEjhqAEkknNhmtzYQKQ5UAACRmBU6ZcxLEgAFTAaLHNhmtzYQKQ5UAAAJmRU6ZcVFCQJHzgDxY6ZzYZrc2ECkb1zzIwNxwzAqdMuYliQATEDQaOgc2Ga3NhApDNcksJDp1gAqXLGJYkAACSSTmQ1W5sIFIarIk0MzUUMSp0y4qKEjhqAEkknMhqtzYQKQ5UAACRmBU6ZcxLEgAuJFhkdObDNbmwgUhyoKFypYUMSp0y4qKEgSOHMNiTpnMhqtzYQKQ5UHnSw0NGQFTplzEsSAGYoXGDc5sM1ubCBSHKg4JQaOuVIKmxYWEyRw1ACSSTmQ1W5sIFIcqCpYgkWMyh0C5iWJACgsSNGhzIarc2ECkOVAAAmZAVOmXFRQkCRoTJJOmcyGq3NhApDlQYmpmaihiVlT0+nebK5c3c28NrABYQLjQ8cyGq3NhApDlQeeNBgZMiSkvP5/WvNlM+bt7vOtZoWACSSTmQ1W5sIFIcqDimIydczKlJlxuf1bTZnnzdfd51rGC4ASSScyGq3NhApDlQAABgUKzLkc/q3myM+bv7vOtYAZiJBuPnMhqtzYQKQ5UAACZkBWXn8/rXmzLPm6W7zrWBJ0DnASdM5kNVubCBSHKgqVMxgUMSsvP5/Wu2Rlzd/d51rADMSNzc2OZDVbmwgUhyoOANFzYyArLz+f1rzZlnzdPd502OGoASSScyGq3NhApDlQedHCTqmBQrMuRz+tdnGXN393nWsAMxQ6BJJzIarc2ECkOVAAAGZUpMuLz+teZ5Z83T3edNgSVJOkSScyGq3NhApDlQAAJmRJSXn8/r3mcZ83f3edawAUFDrkknMhqtzYQKQ5UCRuUGRQxKy8/n9e8zzz5utu86bGTQAJJJOZDVbmwgUhyoERAbNzEkpLz+f17zOufN3N3nWssWACSSTmQ1W5sIFIcqDgjZB1BYyKy8zn9e8zjPm7+7zrWAGZzyDc6JzIarc2ECkOVAAAFSCsy4PP615nnnzdLd502BJ0DnASdI5sNVubCBSHKgAAUMQKy87n9e8zM+fv7vNtYAZiYwbmhzIarc2ECkOVAGJmNCpgVl53P695nTPm6O7zrWOGoASSScyGq3NhApDlQBzQNzECsvO5/XvNhnzd/d5trADEWJGjc5kNVubCBSHKgBAzOmKmBWXnc/r3mymfL0t3nTYEjogSSdM5kNVubCBSHKgAAAArMvPc/rWmwz5u/u821gAsJlxkcOZDVbmwgUhyoAAFDECsvO5/XvNlM+Xo7vOtY4agBJJJzIarc2ECkOVBzzcqNipgVl53P695sM+bv7vNtYAAEkknMhqtzYQKQ5UCQiMm5iBWXnc/r3mwy5u/v8ANtYALnMNBg6JzYarc2ECkOVBwxsg6QqYFZedz+vebKZ83R3ebawJGTmmpodI5sNVubCBSHKgAAAArMvPc/rWmwy5u/v821gBBiWNiTmw1W5sIFIcqAABQxArLzuf17zZTPm6W7zZscNQAkkDmw1W5sIFIcqDAqZjoqYFZedz+vebDLm7+/zbWAAKGYyMnNhmtzYQKQ5UHnR4sbmJJSXnc/r2myufN0t3mzYEjJyB0k6ZzYZrc2ECkOVBxRkDoipgVl53P69pstlzd7f5trADASLjQyc6Ga3NhApDlQAAQQBWZef5/WtNlc+bpbvNmxw1ACSQOdDNbmwgUhyoAAFjEkpLzOf17TZOXN39/m2sAIIJLgc6Ga3NhApDlQc4uQPipgVl53P69psnLm7e/wA21gAkLGhsdI50M1ubCBSHKg4RI0bGQFZedz+vabIz5upu821kElxAubHSOdDNbmwgUhyoOYQXOiAFZl53n9a02Wy5u9v821gAFSS4HOhmtzYQKQ5UAAAAFZl53n9a02Wy5u9v821gAASSBzoZrc2ECkOVAAAABzNfXx9Hq9LPl4Grv9Z1eA5npAACSQObDVbmwkYQ9UAAABWXxPJ9B1stWt1+f0+oxt4PZ9PiWuIAEkgc2Gq3Nhc50dKgAAAFJn4Tk+h6CTM+fMjPn9/0eJtnqAAkkg50NVubGJy46FXAAACsvz3R66+G+y1uPUy5fY7fP3z1gASSZCcNVuamZzY0psAAAA5uG/yWvrTZ9Fh6rLme2c9rAAJJFDIbNjQqIisdGrAAABEZY7KTObNctd7iAAElBCGq1NjQgXOfF6eAAAAJAgAAAABKIpk2NSwGQsIw1TQAAASBAAAAQKGUNVqamhIEGAqKwzTRIABIEAAAVEzKG60NTUsAAUMBcwhutySQAAIACooYwzWhoaFyQACChkZC0ajdaEgAAVMRWIrYuaGhckAAAIKmRmUMCIgAACS9aFi5c0LkgAAAABUzKFCpAAAEkli5Y0JJAAAAAAAggqUIIAAJLElySQAAAAAAAAACAAAAAJAAAAAAP//EAC4QAAEEAAQGAgICAwADAAAAAAEAAgMEEBExMwUSExQgNCEwIkEyNSMkQBVEUP/aAAgBAQABBQL6M1zLnXUXUXUXOuZcyz/4C5PnaCZJFzArLNdNdNci+Ag9CR4TJWuWaz+2SYMT3EpoeQ2AIMCyWWGSyCMYKMGSdnm2QtDXAgFZ/SSpJTmNWQgLL6i3NOiLSNWScyBQP0SyHMDmTGBo+2SLmXySx/MAUPKaTlGSY0NH3yMzROSac0PFxRdmYmZD/heOUs/BwQ8J3HJoBf8A8RGaePxacwMSnnOWJuTcHTTZWnzdyILefgdP1h1plYkldYzsVZcX/Ci/FBDB+jfkDTBzG9W4ZBeifaL8DgdP0MORvWP9v4O00lCGEpybEPjwma48QxOB0/Qxsc8NszSWpcSnfDghhZ2m/wA/oOB0/Q+mTUIYWtlu59BwOn6H0v1CGFrZbueUkszXdewjPYQR0/Q8LEnRrxd1zGSeSetKZo0/UIYWtlu5I0vZSHKTU6r+pI+j0xWtyW4In9/VXf1Ub9VBHR4cYxFaXStLpWkIrOdqPrVpIhWfW9mlon6hDC1st3CQBVc3qzy9Z9rkZHMQ67icDp+h4SxtmjbWdzvru6sMQhjT9Qhha2W7j2NkaKldpNSu4iKNsccEUOElWGV3YVkaNZBHR5c2PrWV1rKjLnM8n6hDC1st3PF8c7n9GyujZRhsoI6foePMOaSzDCQQ4KTUIYWtlu55SSTtd1rSMtpBHR72xx9/WXf1l39ZC7XJzyEDnS8RrDOeh8QqTUIYWtlu5IzqMpNDHMhjtT8zuxfDHVmktwxP7+uu/ro3q6COn6HhaifPAI7IvNk7Wem1zYVJqEMLWy3cc5rG1ZourDIyKf8A9CeRks2JwOn6H0yahDC1st3C0OHRiBdGx+DY2MwkqwTO/wDH1EaFVBHR7GyR9hUXYVEyNsTPKTUIYWtlu54yRSuf2867edGCdBHT9Dwmc9kJNiu8ummnqyuljUmoQwtbLdzAuaCg4OwkdYDupcRktoI6PaXR9vMu3mXbzIQTAve2Ns7OnZr+zS0UmoQwtbLdzDOqJMnOqGNkN6S1HG/vol30SN2JBHT9DwexsrGVGtfJVD5IomwxqTUIYWtlu5gx9eNw5o6fUZPdXMAudqL24HR/OI+e4ue4mc5Z5SahDC1st3MMgcAAMH14ZXdlVRpVUEdP0PBzmsbHahlfJahicx7ZGKTUIYWtlu54yQOe/tXrtXo1XoI6Pf04+9Yu9Yu9YhcaTJG2Vs/52qu9R2lJqEMLWy3cwfNFGcwAyWOTCQ2ebO6ibqtSPbctSPEHDXufENMZ5HxxVXFhBfWmqRujhUmoQws7LdzBktcSSMaK0jGx3ZLIjf3gXeBG4Fb923scNIEAljy60aBDh5SahDCzst3MI5o6sgY9lLqts206RjT1okZolc963scOa19cVa+Xa101rWN8pNQhhZ2W7nk+GKQ9rXRrV1c923scL2Rpi/m5Kxk656lizUe9zVJqEMLWy3c8ZK/Uf2i7RGornu29jh7eesKnx2i7RCrkVB7sHu0/5KTUIYWtlu5gSGhz2sZFPFNhL3HN/uo96rnu29jheyNMXsEjBQgDpa0cro42RMUmoQwtbLdzDiby+Kcc0jxlxGSx03d2u7Rtq57tvY4fz9sO9X+6mc/J5SahDC1st3MJq9pleYSNa13cXE+aKM91XRtV1c923scL2Rpi97Y2Mtsc/GTUIYWtlu55OjY49GJGGJXPet7HD3clYWjl3ZXdlC0Sb/p3PCTUIYWtlu54yVxI7s2rs2o02q57tvY4XsjTGzEZq569h+MmoQwtbLdzB9yCN75WRxxWIpsJRY5srqIuq57tvY4c5rK4uVsu8rJr2yN8pNQhha2W7mDhHVriMxtk/sJJnMd3T13T0bL1c923scMGcAjZl02IADzk1CGFrZbuYOldJYn5nBpdPbUliGI97VRu1Vc923scM2Rpi8OLKvM2xymxapucWqTUIYWtlu55EArkai1qu+9b2OHsD6wpR5dlEuyiQpxgqD3Yfep/JUmoQwtbLdzxkrRyu7GJdjEjSiVz3bexwzZGmL2NkYKFUGWvDMWMbG1SahDC1st3MZZWQsisRzOUrZy7p3EY7aue7b2OHhxrCO3l07ijDwzyk1CGFrZbuY2fZk/sJJZWO68669hGedXPdtbHDNkaYyythjZZPUfZIkhlbNGpNQhha2W7mNlj82c81pS2YYXd/URv1Vc921scPJbWE9jLr2F17CE0+ZaHCT/Nbq7tHbUmoQwtbLdz6CrvvWtjhmyNMZ+t0q7LEQ5J4Za0RhiUmoQwtbLdzxkqxTO7CuuwrI0a6ue7a2OHvbHWF+rl39VRyNlZ5SahDC1st3MHXGNc+xGyKKy2V6lZM49G0jDZVz3bWxwzZGn0SahDC1st3MJSyrB0+ipP7CSSZrutZXWsozWVc921scM2RpjM174XxR15hE2zapE9NSahDC1st3MP9o2JmyvaxsstlS2YoT39ZG9WVz3bWxw9jZKwoVsuwqrsKyFGsDNL0Ypul14XtZbo/LFJqEMLWy3c+gq771rY4ZsjTwZDFGXwxSoDIKTUIYWtlu54y1YZndhVXYVUaFVXPdtbHDw51YQWMuhYTA5rPKTUIYWtlu5hNK2CKWdsTIrHPIpY5HnoWEYLCue7a2OGbI08O4b3TrEhlglE8afqEMLWy3cwv/7DZt6X+wkfO13UtrqW0ZLaue7a2OHlwrCS3l1La6ltCS1nLKIYoI3Mu1d2jtp+oQwtbLdzCXhw6EkD+mxk0lhS2I4T30KN6FXPdtbHDNkaYywsmaKETLJhnjlrw9GJSfyCGFnZbueOYXMFzBFwV33bWxw94jrC7Fl30KY8SM8n6hDC1st3PGStDK7saq7GqjSqq77trY4ZsjTwzCLg3F+oQws7LdzB1l5ebbO3ZYd1VLE6Q9tIjWkVz3bWxw34hD25c7FzsXO1Xzy0YO0bKyKOe3R+I0/UIYWtlu5hB3PM6QSwz+5IbPPzXVzXUXXFd921scPY19cU6uXZVV2VVCpWBsENgmnisOZLHBbo/MafqEMLWy3cw6ViJ/aEVmxTPnxKu+9a2OGbI08A0BFodi/UIYWtlu59BV33rWxwzaGn0P8A5BDC1st3Pot2uimNc+SducMUkkLq1htiP6JNQhhYGcbD+Xm5wY1khkfEQpX/AIk/lVm6VofRJqEMJFH/AB87XqMdkmyp8vxmm/MrPM6H5eEMHrRNOY8j8ixEa82a5lmuHwmSdnm8/A+ZQhg5PGUsJ+i1VZYZLRniPSlUPDpZDFE2NgHm8jOLPlCGBUreZvN8g5/QWrlXKgPNzsg75QQQxcnDldE7I/8AC5wKYCgghiU5uYyKikz/AOBzi4t/MoIeJCezmHyXRyfaTknPLyBzhBBDxIRCewOB/FNwyWSyWSyWSyWSywkyA5S/wHmQiFkuQtQscqEjSA4FZjwzCL2hPmaxGV70GZFZfWQiFlh0m58r1/kWb1m9ZvX+QrkcmxtbhkslksvryWSyWSy8slkslksll92SyWSyWSyWSyWSyWSy/wDif//EACQRAAIDAQEAAwABBQEAAAAAAAAEAQIzQAMREiExEyIyQYCQ/9oACAEDAQE/Af8Az/UpWfOfmBfzpN/2BykR6fhPPAlnYW0HdCeeBLOwtoO6E88CWdhbQd0J54Es7C2g7oTzwJZWFtB3QnngSzsLaDuhPPAlnYW0HdCeeBLOwtoO6E88CWdhbQd0J54Es7C2g7oTzwJZ2FtB3QnngSzsLaDuhPPAlnYW0HdCeeBLOwtoO6E88CWdhbQe0J54Es7C2g7oTzwJZ2FtB7QnngSzsLaDuhPPAlnYW0HtCeeBLOwtoO6E88CWdhbQe0J54Es7C2g9oTzwJZ2FtB7UnngSzsLaD2hPPAlnYW0HtCeeBHOwtoPaE88COdhbQe0J54Es7C2g9oTzwJZ2FtB7QnngRzsLaD2hPPAjnYW0HtCeeBHOwtoPaE88COdhbQe0J51159f2f4PivnX4qeNvj0PZevqe3lbzt8TzRHyeVPrT4PQ86fpH8DlPtUmOXz/ygrP4fBFT7Hvb+0vyweXp8wfc/qH3Pa/+i/N53+CPSJPsT6FrEzzxY+x9iZ/4A//EAB4RAAIDAQEBAAMAAAAAAAAAAAAxAQIDQBEQIYCQ/9oACAECAQE/Af5/3mfS8z4Un8dOjLooiOjRl0Zojo0ZdFER0aMujNEdGjLozRHRoy6M0R0aMujNEdGjLozRHRoy6M0R0aMujNEdGjLozRHRoy6M0R0aMujNEdGjLozRHRoy6M106MujNEdGjLozRHRoy6M0R0aMujNEdGjLozRHRoy6M0R0aMujNEdGjLozRHRoy6M0R0aMujNEdGjLozRHRoy6M0R0aMujNEdGjLozRHRoy6M0R0aMujNEdGjLozRHRoy6M0Rz3t4OSyK2mCtveeZ9kgmfmckcson578qRzTB4eHhEEc0wefPOnw8PDz9AP//EAEQQAAECAwIJCAcIAQMFAAAAAAEAAgMREiByECExMjRBUYKSBBMiMDNhcZMjkaGxwdHhQEJDUmJzgaOiFGOyUFNgwvH/2gAIAQEABj8C/wChSynYFqZ44ys97vDEuyneJK7CHwrsYXCuwZ6l2bh4OKxRTvBY2zG1mNYj1/wXTNP6W5VJooasePqJtMl6Ru+3Kp57do1KY6ylmX3LoY3a3lT19ZUzEV0ei/W3UV8Oqobl9ypZm6zt+wbIg/y6naTkCoBx/eP2LnNYzh1Bifw37HUFRqyttUtyuxBYs1uIfZMWVuMWnH8o99h8bnOiyLRRLVOSgQYUXm66pmma03+odSI3OdExqKJapyTOTQXUEtqc6U5BQ+cjc9DiOpxtkQbE0WflOLws3nE/CwWzjUF9RbzRlPxXJuaaHOk7ESvSwWNbtDuppnGo5yqnmjKfih+x8bQ72+7/AO2Jpg2NFnkzg0yAdM7OrZykMc9tNDg3KFDbBZEY1rqnucJfxZbe+Fh/gfs++LD7pR+zbzbD7pRtyZycvG2oLQ3cbVobuMdREiDK1s0DEMKnXIGafDg0NEPKXCcyjUJOa4tdLbg3m2H3SiqQ8s7wo7anGmJ94z1BPfHcTj6EnEUhQAXn0j6S7XJQRCLg2JMOBM9SpfEAK7YLtgu2GEhjqTtlNaUPKWlDylpQ8pY+Ugj9tPh1BtWsqE+G503RA103E1LlV8e4KN+87BvNsPulFY1yjpDtfgEeTQ3y/wC47YNnioEpBjIrf4XJgDMio+zrDDdkKaYsd0QMxtEpIxIUYwy7OxTmqBM6yTrwbzbD7pRVL2hw2FAiBDBH6VMwIZJ/SubDGhn5ZYl6OG1s9gwVPbM+JXZ/5Fdn/kcJLW1HZNaJ/YFon9gU3soOyc7e82w+6UbRLOUUDZRNaX/WFpf9YWl/1jqaZ4zqUokRrT3qYMwcG82w/wACjbkyBWNtclog8xaKPMwlzsgWeeErPPCVnnhKkHnH+kqZTYxyPY6gd2JcpccvOS9gT26hEcB68G82w/wKKpqc3vauUNGQRfgFHdGbXS+ls9WJUVHtubnrlUoDoLaKn0ulrxIsc4zH6Ss88BWeeArPPAeoMNjg2eXwUIuLJBhzWeCjc418nuqaWtnPEiXCkveXS2TODebYfdKKm5waNpUf0rOlFxY8uILlDYjw011Yzqkuc+7z9f8AFS5O2G8ONdWI6pH7DvNsPulFScAR3qYht9S6bGu8Rg6DGtnsGCqJCDiuwauwbhLHibTqXYNXYNVDG0tGq3vNsP8AAo2pt5S5g2BoWmP4GrTH8DVpj+FvUOdDbU7UFDMSKIjXupIplJRGQ4vNNh4s2cyjXKpji0ywbzbD/Ao4ZFwGDokHwwejhNcNpfJaPD8z6LR4fmfTCQ1xYdoWmROFvyWmROFvyWmROFvyWlvO61VOMgoUYvLwX00HIJ7Fyq+PcFG/edg3m2H3Sjhj/wCrorqOf+XVJckhxZye/pA6xjUHmmhlYcHAa1SQ+fcwlZIvluWbF8tyyRfLPUFjxNpTXOiRIlOaHnIucbEfDcctByqhmTBvNsPulHDygcppDy85+salyV8QEBj5nuGNQeacHhgdURqwYyFnBZwwmgAu7yuxheZ9F2MLzPovSAB2wGdvebYfdKOHGMGISwVRITHHaQtHh8K0eHw9QXOMgNaoa4z1TaRNUucatgBMkHsM2nXg3m2H3SjaqHKIjO5slpcb2fJaXG9nyWlxvZ8sJcQTLYJrso/lFdlH8orso/lFS5uN5ZVL8k5qBDGVprPcFyk/7nwCiD/df78G82w+6UcMnxGtJ2lTJxL0b2u8DPB6JsMt/U4rMgcR+SzIHEfkmgOI6AxArE8j+VEqcXY9Zsl0OGYjtQXSgRq3npPICi+he9sR1QLF0xJznF0tk8G82w+6UcPKOeFTucM+hViXJoQdXDdEH8hcnLGhtVQMteJU81Fd3tZNdjH8srsY/lldjH8splwYIpJl0l2jfWu0b61MGYt7zbD7pRwxmxuiXRKhiyhQHFh6EWsjWBj+agmF0hDmXH+MEnPaPErtWcS7RnrTbgwRWuAIqyFdhD4AtHhcAVLGho2C3vNsPulG3N8Njj3hdhD4Quwh8ITbgwRL1k0Sq1TUeHEiV0y1SUSHzrobYcszWnteajDeWz24N5th90o2queit7muWkx+JaTH4lpMfiTLgwRW1FvSyhaTH4lpMfiWkx+JT/1Efiwcp3fcuU7vuXKP3j7hg3m2H3SjhJJkAq3OAbtK9HEDpbMHouap/VNfge1fge1MuDBEvWS0zkdhkqhXP9wqs1B2SbXSVDBIDBvNsPulHC+Cw5ra3n3BclacleT+FBI+8x0/YqeZiu72tWjR+FaNH4Vo0fhTLgwReblVVrX4HtX4HtXpKav0295th90o4Y/TY/nJk9EzK5PFcKubPSpHcmRGB1ENpxkSy4JPiMae8rt4fGF28PiCbcGCJesl7zJoyoNLIjKs2tsp2N5th90o25uYD4hdmz1Ls2+pNuDBFdSXdLIFosf1D5rRY/CPmtFj8I+al/po4/gJ3i33hQf3m2N5th90o2qucituvku2j+aV20fzSu2j+YUy4MES9ZcxuXUoYfB5prHVEl07G82w+6UcNDomMZcWRVvcA3ajzbpkasmD0ToYH6gVnwOA/NZ8DgPzTLgwRXOIaKspWkQ+ILSIXGFUxwcNot7zbD7pRwxDqxuM9a5DDflBx8Kgd7HfBSECI/vbJaJG9nzWiRvZ81okb2fNMuDBFn+ZZjfUsxvqWK3vNsPulHDVF5PGoYeg0NynaoMdsNxodMt1pkTm3sZDaR0xKc8EokVrT3laRD4lpEPiTLgwRL1khrqTtko7HRHPppzvBRWOiPa2HKQa6SiMc4u5t5aCcG82w+6UbeMLNCzQm3BgitM8btRks6L5hWdF80rOi+aVOqL5hwcp3fcuUi6fYuUHVzx+GDebYfdKNqpxfPueQssXzHLLF8xyyxPMKbcGCJesljxMHUp8y1AxGAka0GsAaBqGDebYfdKNip5kEWiYcPuuEjg9FFawd7JrSIflfVaRD8v6plwYItDg11WUia0iH5f1WkQ/L+q9I4OdtAlb3m2H3SjY5LfPuKgXHfBSZyd0QbQ4LQ38bVob+Nq0N/G1MuDBEvWS92QJrIkF0KvNnLGiyFBdFLc6WpB7ch24N5th90o2IURjajDdOnamxTDdDaxpHSymeCmJEDSu3au3amXBgilrajVkWhu42rQ3cbVobuNqx8kcN8KThNQ4YyQum7x1LlP7vwCifuv9+DebYfdKPVNuDBEvWTzFNf6kGc1Dpn0nVzJ9iiOgtY9sQzxulIqTjNxJc6W04N5th90o2qntJN4rMPGVmHjKzDxlNuDBFc8yAcu1C7UKthmDb3m2H3SjhcAyI8NznNbiCEScw7NlrRZS5j8tLxg9HGoF2a0v+taV/Wm3BgiXuq322H3SjhcWjwG0lchhn7p/9SoF1/wUmQKxtqktE/sC0T+wLRP7AmXBgiXrLmw3UuOtQeYMnl8iKpzGtR+em4MIDRPJiT2kk0RC0T2YN9th90o4edicmqpzBWMShRWs9JDdOglNixIfNhjSAJzJnglEdL+F2n+JWf8A4lNuDBFa4TBcuy9pXZe0rsvaVMQ8neU6JKdOxQYkGnnHv+7rGtcpDnAEkHHskojhkdFcQduDfbYfdKPVNuDBEvWpshsaTsC9JDa+W0KQwb7bD7pRtVRIYcV2IXYhdiE24MEUNdSZ5VpZ4AtMPAFJz6ztlb3m2H3SjhdEfkag4gmrEGjKVzb4bob5Tk7Xg6Ecw/BoK0x3A1aY7gCbcGCJetDk/wB6mo9ycyDBroziXSVYEtRB1HBvNsPulHDGH4cBuPvcuSXj/wAVAuv+C9HBa8bS+S0Znm/RaMzzfotGZ5v0TbgQUUsbU6eSclozPN+i0Znm/RaMzzfosfJ2S/c+idEdkChuido9jnO9i5T+78Aon7r/AH4N5th90o4YjYb4k3TxF+Kahc2ZvhGYqOVCNFaGUAhrQZ4JPq/hpK/E8ty/E8tybcCCiXrNMRtQTIrGyDRknrT3wHMlExkP1FUzqM5k7Tg3m2H3SjayrKFlCyhNuBBRXGcgdQmskTy3LJE8tyqbOR2iVvebYfdKNqqJCa494Wjw/UtHh+paPD9SbcCCiXrWVYyBh3m2H3Sjhc2DAMSjE4zkmxgCasQbrnsQhxYRhudm45zwTbGfDuyWlxfZ8lpcX2fJNuBBRbyzh61nD1rOHrWcPWo12SZLk/NuOa4slNcoMVgfSQ0VasSezUyI5rfDBvNsPulHDH5rmwOdOdrXJXBtHpsY78a5L4u9y9GyGW/qcuyg8Z+S7KDxn5Ls4PGfkm3AgorXgOFWQrR4fCtHh8K0eHwqYgQ+FOJh84B91QGwXh55wOxaguUCK8MqIcKteJPfqfEc4eGDebYfdKOF/M82WvNXT1FMhtf02OrBO1MiRqBROkMstuBBRL1rEAFjAOHebYfdKPVNuBBRPHqt5th90o9TzbMcQ+xVPJce/BVDdLuUxicM4dTvNsOHcp7R1BccgE0XuyuOEpux2I9Tvj42Yd2XURbhssvDqWeJPwsuH5XT9fUSRhn+LHOHNZ1J/SJfGyP1dH5KWzqJOy6is2sbWrs3epTidBvtQYwSA6jHkGVTOV2M2SEImSeJ3j9kDPzYz4W8ea7L3FUOyj7ESc1qLnZzvZbkVT94Zp2rv+wUtQlmNyd/f1WyJ/yUjl66TfWqW5ms/m6uRXpMn5/mtvWTcZBYxSz8u3x670Zl3al6QU9+pT1bViNrKseLxXREu93yVR6Ttp+wzHRO1uJZwN5qzR/DyFmHjWY7jWYeNZGDxJKxxDu4liH/AI5//8QAKRAAAQIEBQMFAQEAAAAAAAAAAQARITFR8BAgQWGxkaHBMHGB0fHhQP/aAAgBAQABPyH0CCIhNqmWEyq+XRNrhGA/rgCZcmjOeiMm3v7A+0SIl+0O0U3VskSrIJ38ih8LfKax7qmCwhoM8MUEffjhNAXGfZBQr+mSymRcmACJKm2FbuOnwmRzaARKD8iA0TaJlEwTKI0kPYgH3RidGiBxnGwHz9pyDs0fcPIQUQEGRGAPRMIqGLXJMgqU54MmhxBQbKMo1FAB6QEdSgy8iNQh9JQh1BECUwfRAlkQ5Dw5JkNStVAC5JnVAAA9YAOIHQptLAAmQUP2hvxBkQZg0wCzSMSQNSnkxhFx6m5IJAH+Bm4mJFEIgO5CvuOEycIkDkYC18mPk+FNpmf+ItEmvfo+DUfBRIsjSRjexvyfhDQGCxdxQDD/ABNEcExy+9UfI4QwEFwdUSGBsFRFse/8Dumh5zOIYbJBsWJpvFSssmEoFUGBLxTEJZDCBmxDOyHbdzfVBhFjaBAIwuCbBKUsgOA6KJpMdwdj2RYiZJv6h2dghbFp/wDZCc+iThGeAVgJBA41K5OSMLWpMA2h7GsX0SeK7tli6Dorq+shcKIpi0h/UJZDhDaCDgJ5YwtakxFy7gHiO7aoJjpIJA7nySKN0Mdf5yZtdQQxigHA9KMLWpPQMl2fLk7BQrh8D0owtak9AyV9ucnYKFcPgZ9pnRclX95Vg+VGzhtsLWpMhxoEoHk6douDckdVqBZwHYMUWBjAUGURkr7c5OwUK4fATsQab90RnLIJCQB2KAM+DVB5CEUsTzF9wFHkCUCzgY6wRMO9C6/NK/NK/gSjBYiRwheTyOB8Jn432vz32vz32gRLsiGh+60woUooe6wCAavgis9UZK+3OTsFCuHwE4iAFSq5IIzQMAbn4m7snHOQJBEII4goGghfvljC1qTI6a2xZFlyOQiqWmig7wwCDJGOqfzEMwIzJRkr7c5OwUK4fATtf0XCNXBwQLgo1PBySMVtBgHYnquoT4O/yXa8rcXbqqWboWYDTCZN8oT/ACg3OjfoDHDOU+cxkp90Tk7BQrh8DM+BZNM+cnOEaXLnC1qTKQgQNEjUULnqIBRQyMA4IMCjJW25ydioVw+BnaLZ0OxfgfpfxX6T4OGOEV9pxZ0GLvorL8Ky/CC3gmH5IgQjARJKJGRtyJYfmaECAzGwhIGCAcoHIyVtucnYqFcPgLUF1GPVPpwQcuiSCUUBYYdV3/dFP2UkkooCSMeiBCTgDcBWr4Vq+FbXhG4BGuFrUmR0K4iHehGQxDkAAeCc0AGKdBgBoawR+bh5g4HRkrbc5OwUK4fATIw1GCb8SBb7BH2ZoNOQR7LU061t9+iD8zweYInfLGFrUnoGSttzk7BQrh8BbXKB0AAMiRAo+IJJosmDM0EfJ1Q0Hwh2VnK/BX8agAAAkMIPmcLVBrwr8lCgUgGYyVtucnYqFcPgZi46yMgdQrc8K3PCtlwoAHL74WtSZG0OPmQRKWlw6hA8EhzCMH10ipl1chIM0ZK23OTsVCuHwMQooMgTNSDlC3C7nwbbf1Do2JRJzB54RPokIEjqgziBAgCSQgYgxOyIQxzJRwRXUsD/ANYZrPVGSttzk7BQrh8DEd02fwUUWQATDBAHoEyiDCwYxEERHQp3UBW14VpeFbvhE4Brha1JkbOFiFMD1xBVlyiQDWMA+bhCgiypck1KMlbbnJ2ChXD4GJqTEWRpqhkAGWdm2AfqET44xLhzARwJTBe5X6q/tEMIiemg0EGfOT9chgHVzJ1zGSttzk7BRcPgYkwEBIk4wCsANhhDhbMyV+DX8CQAMBIYWtSZBtx3JaIaAGHBobPNPvADlmt2kgARXAaoyVtucnYKLh8DMTAR2g6jI88WBgA74QA5aHk6IMWPRWD4Vg+EDs3LRH4TfnaZ7F1VnH2CO5PZe9QuqECQEBSNGSttzk7BQrh8DEAk8Aw6LBAEXKeYLNtmAkpJiF/gY9lYE3JCQzuU8iVQhaPAWiZaUwIUzCXw8H6wATrswgOgBBpJGka97xHZGSttzk7hQrh8DE3O4IjBZnhAJnnp9IpA9pdEawQIzIkQEy1Idcn3xo3NY5wxIgARK+ua/FpkImoOYyU26JydwoVw+BiVYmDuLwEkBtDTESdHsCdaW0gsHYB74OYNABfmF/FVZKnDMDYOBwcezAaAMgMBmMlNuicndKFcPgZ9G1OMnE5NAMWE4fYss65HUFwn4X2lkwdNMP6DkQ8yFJfo20F+6MlNuicnYKFcPgZiEi9AOE+34T7fhEt+EDCn9hw55IIrESRrPhPt+E+34RQumLsYT2w7lUnvhGDJTbonJ2ChXD4GIywDknRHwSmRggJOtnSw9nN5/jHu6NPyHB7FlqgYcLqEZMSmZvdBbDEWMikEN0eRkpt0Tk7BQrh8DFjYChaDyHhCDXNxLY2QhBiGVQIETqqByn/z/af/AD/aJ/H9onNL7Dg7SjadFBn0r7+lYb3sTd8xkpt0Tk7BQrh8DFs5IfahFOgb4mkSDgfKh1rJ7iyAf2wgnp2GDi4GJziwnB7FlgKBXIo65nMMZkpt0Tk7JQrh8DO4h1AV+VX8HV0qcFsmQQYmWTmOFALFCzlod8JUtyOJkpt0Tk7ZQrh8DM+20KHTJZYKBhWOcHsWWNsAbF0nBccIWWiMObQNiZK23OTtlCuHwMTYIVgj3HTC1IiGqCBIfBwJCFYg4v8ABx5KTo0/IcEKsg5GAljTMChhkRwcxkrbc5O2UK4fAxLEOZmDjp4US6CGoLhQmEwTujfu1B3OR55sTmZvsOCAAAQyBX1QX4hAWAAUGYyVtucnbKFcPgY1cGHceFo3VWaQRKsUJrgTgmSHxgDmYOA1BfkF/AEYJhI8hUldqyziLlGb4QC7kwk84kRZGJZ5Idyy1KSqIYEP1Rkrbc5O2UK4fAzlnAfcL8RfxCslSpKMsABMLTUK6/urt8q7fKDweBeP34dyowCJlobIYARJg1ghkrbc5O2UK4fAzNkGNCOgKtryra8q3/KFh05ipK7VlgAZ4tUxAiFBQoJCpFUgQCMlbbnJ2yhXD4GSaOMIOSaAJkHnJbVWOAUWLETnUYkGnxJ+QqSgSwDMAlpjVFAQ1AwH4zGSttzk7ZQrh8DJEBF1yUIkSnkq+PKujyrYcqN4NofJUtdqyzh+wHJ2RRFTDIbIGBU05IwBsiYlON0AYg6goyVtucnZKFcPgZDImo5iBBBbeKAfzELjNBpDAOKwcA0xkhgmEjyFS0WSIGEgPKquE7q7vKu7yixAImJk901iIILEaop5O7RhAdycKrNUjJX25ydkoVw+B6WyVKlLtWWeE0cASgN0ZQCc5I1NRRhoqvWmoXEE3afEjjlkZK+3OTslCuHwM0K4NAHBVq+VYvlW15QsEacxUtMrEc9EJ4RX5RQJoccxkr7c5OwUK4fAxPAFnImqMsm0Fy+TIkQwkBIqMAshaiGuWw6ftUPp+0+KXPmKlrtXoxkrzc5OwUK4fAxmkSWfjfJT3JyUH3wLJTdo5CGEPiBvuKlrtWWbjZhTXsgUYM7bsPKZw5lAQCTDWKZ3TYnLDBGSm2ROTsFCuHwMWLYCYYhv90FCKiYEEP8AKcq8YkMjD2wBzCIcRnhbi/ZVW7ZG5RrzFSkyORx0Rtl3Vz7le+5AbUk4/ZCOmMRFCZKsoJOLc1QhNk4JnZD9kQj6mI80ZKbZE5OwUK4fA9LdKlSl2rNF8+hGCU0UI2WQAAAAkAjJWm5ydgoVw+BmgcFnNF++V++V/QlCAESHMVKRRZxYQC0ldf2Vr+EMHBmYB+mYyVtucnYKFcPgYlqYTndGcZAK5KJ2hMMQbEYApFARDh1V/eFYXhQul9b5KlLtWaLMiRkoQJ0tjvNhBBJEZmQIEIyU+6JydgoVw+BibLMH2MB8DlW6rAxqtHcPZsnHCB8WB8xwgJDFiiS1yYHHBYgJ0TGySuGVdl3WOXg+BDCqzVIyU+6JydgoVw+BiaDxECXFUIYs+iMpBBPyhm91EXZyT8YBMaQ/1gV76lZXhG5a8xwnastM+XZ9UIgQmUMU4ajMZDOGTEb0m7OFyjJWW5ydwoVw+BmIJgF+sv1l/TK+VOEgDjMLTQIOzdFY3hD3vALocxkp90Tk7BQrh8DNAw7O5BfiV+JX8RQABEhzHCdqy0kDlgJ+VqWVLYGSn3ROTuFCuHwMQmEoGD0DzURPshFIh4OhMEGTD1wDQQCUzqF+er+HVCF3+44QwUSwZPJ2tZ1Z9VLqgmIeG0/0PsmUXEHAMMPkqBiY8GQGARkp90Tk7BQrh8DFwbTHeXQpJAjuFnQGHvgiEQr4oPGQYMPHRZ+Y4Qykg4HBX1jX4dfg0FAiC4ICChHATVGyoQX43YmTROouJMAYIdFIxjyJkYFGSn3ROTsFCuHwMXOcFiIJpymEQ9QxQLyS4pEprPFyJcmDknLulThO1ZomSUM2E1oWVD4GSn3ROTsFCuHwPSXSpwnb/RjJTronJ2ChXD4HouIIESZCnRTqSGyjsknjoKZ1KUfQMlbbnJ7zGOyc2g9h6Ew5EiHO8KcIbwmEGPeJ1kb5zJSd+wCyYOCjZyg/cOPCEs4khE/BhG9U7Mi8ungCZY6oo5zZIV+EfbIg6k1Ogi5B9CBBSiDNSfAXKoQbigQNT3OiDO0nxR8jFyMiKcGgu959z9VBfs9CUsJcwjxj0YnZAxYHNHoU+SmwEKaGd0dCf2aoIOxvmOQGCi41DTdCUaBTV35TTOQ+C5BWfQr3zoX2eECDEZIEM+z7A+OiKb/CBLBFC2iEqGTRCOwfCBBkChGA4Mwi8DPbNPcd0zYwCY9clgtd2pogGsT7vhRAIEGQh8ITBeoImDVEMCwJES9m+ydgtQgX9QKdSdCFYFIbcoBoBAgQZwYA4RGCMJBpbVPYRYZEaoD0gAQUVAz3+0AW7gs0QFEAgEHogUevUkw5fGnwjQF3I9WnyqoNER1USAfbAcJwnC3FACHsg0YdKR/iah7ehbqhuJ+S/iAQQBAemBQhGAzUHdkfHY9wyg1bLVfx/wCV+I+l/W+oTXAfhAoYEUYPaPdE3GCZnU/KZBAgQemKFSpwmyNiBAgQesKH0f8AhQjf4mTBMEwTBN6n/9oADAMBAAIAAwAAABAAAAQQQQACAAAAAACSbLZZaCAAAAACBKQASCJAAAAAALACQCQCRCQAACJAASASACDCAACRQACQCQACTQAARCAASASAAQDAQSQQACQCQACSYAAaSQASAQCCSQAQBCQACQCASCSDCAaSAASAQACSQaCTCQACQCAACSRCSISAAQAQAASQISRCQASSCAAACBCSICQSSQCQQSQISRACACACAAQQBCSKQCCSQSSASQISRCQCSSCAAAQBCSIQACSQSQQCAISRAQCSSCAACSBCSIQAAQAQAASQYSRCSQCSCSQCSDCSISASSQQACCAISRCQACSCSCQSDCSYSACSQQAAAQISTCAQCAASQCSDCSYSAACQQAACQYSTCQASSCSCQSDCSYQAATUfAAQAYSTCSQQXqUQCSDCSYQAAANSwASQYSTCQASDsUAQADCSYSASS9TwQCQYSTCSQSXgkAQCDCSYSQSStxyASQYSTCAAQDAkASSDCSYSAACZRwSCQYSTCQCQVOkASSDCQYQQCSp0yASQYSDCSQQVOkQCSDCQYQACQp0gCSQYSBCQASDMmCAATCSISACS7wgCQAYSRCAACX8+QCSDCSYQSCS/QgAAAISRCAACX4uCQSBCSIQAAQPQgAQQISRCAASX4+QCSBCSIQAAS/QgASQISRCQSSXrEAQSRCSISACStCwQCCYSRCAACBvEASCTCSIQASSthyASSYSRCQQSVvEACCBCSIQSSCvhwSCQISRCAASV9kAQQRCSIQAAQfhyASSISRCAAQV/kASSRCSISCCSvuySQSISRCQSSV8ESSCRCSIQQAQfsgASSISRCAACD9kACSRCSIQAASRrgASSYSDCAADN80ACSRCQIQAAWSqIASSKSBSAADDEPgCSRQQYQAAQuZkASCQCSaAACf4QACQYSATQAASASAAQKQQCBAACQCQACBQSAARSASASAABSAAACRSQAASATQCQACQDYASQCaAAQAACAARZJbCSSQAAAASASAAAQQQAAAAAQCCASCCAAAAAAAAQAACAAAAAf/xAAjEQACAgMBAAMAAgMAAAAAAAAAARExQKHBcSFBURBhgIGQ/9oACAEDAQE/EP8An8kP9Tc/a/pERS/9IRkqS/oSHjsbXEXFJfIbXEXFJfHQ2uIuKS+OhtcRcLKl8eRscRYUl8dja4iwnGCc/OOxtcRYU+F8htcRYPC+F8dDa4iwp8L48ja4iweF8Hl47G1xFhX4Xx2RtcRYV+F8jvcRYLK+Cw8dDe4iwr8L48je4iwpj8L5De4iwr8L47JG9xFhT4XyO9xFhX4Xx0k3uIsGhfB5eQ3uIsK/C+Q3uIsKfC+O0G9xFgkr4LDyO9xFhR4Xx0RvcRYU+F8hvcRYU+F8eRtcLCmPwvjsbXEWFPhfIb3CweF8Hl46G9wsKfC+OhtcRYU+F8eRtcRYLK+Cw8jtcRYU+F8jtcRYU+F8dxQhJogfIJpa+cdUxkl9iFISYxTH+AuX7RE8X7X6LcRq2LSIIQ2E+MV4ZCsQfxGJUGxmvKPvCP6LVDH8smeMnH8MBmX/AAA//8QAHhEAAgMBAQEBAQEAAAAAAAAAATEAEEARITCAIFD/2gAIAQIBAT8Q/wAX2ez2e/h0frAfEwQeGBeDDH3BnMTbpnMTapnMTbpnMTapnMTapnMTapnMTapnMTapnMTap9h8TE2qZzE2qZzE2qZzE2qZzF2qZzF2oX2HxMXapnMXapnMTapnMXapnMXapnMXapnMXbpnMXapnMXbpnMXapnMXbpnMXapnMXbpnMXapnMXapnMXbpnMXapnMXapnD5DnT2MDtVAPRmJ5PYr5QucDC7ldA9nYSnIPuaVOZh/hQ5u0McggCAczEdhoEj8AP/8QAKRABAAIBAwMEAgMBAQEAAAAAAQARMRAhQVFhcSCBofCRwTCx8dHhQP/aAAgBAQABPxD1qGYKEWoeY8VvG8Q5fyncfhgHHyQ6H8w7pZAsA8/zKGYCtgdWWKPCn9m/u0S9+4nT947qQf0V/JnG7z6L4guA8p+9CnI+3L4E5Pdl+BHxC+i2X5gzbAs1J5oH8MoexpVdPR6PZnfl0A/xmIQCLpbPQDdfu0St5sBt2H4We8Vqy2l3Hle6+0pkr95+MQcAQHQO1LeEVFeZ0FylOYpsP+e1QGxtCVO4ydgnebGIW0C7fHkOxDRpaLE7OiT/AAgYwPdgrrng6GXjrEzgUFNdD4Huyst5s3/kJoP4i6SXEk3RsP8Az7mPsgtVnqcN1Nnns1S2pa5QnD9NCz1mJv8AweSPa6HL2uM1ri3ep5f6wdh5AYD+VBKZgg4MkpUoxCuov6yH5q0AodCyjqaFp6VouZeQObtgPuwLxBWh3jijoGB2uCgAKD+YmSDgN7oRMAIFun8/k9kAUESxGx07D0G68RE8Ebnej8u3sLzCv3by6v8AOaVZTAG0/B9+LiFOzu3avdPwnT0+tFzbkdup/QIKWhOyCj43ioP5zQgKJGxKZMgP7E8iA2AIORw6Ts1GyH/qp8jMWAUvyOpAxxfvRablnZrtEAxymobeTzzBhki07Ol3qZtm9IK2SlLeoIlmjlF4z7bbPyK4qGRwMhaCbKrziHewSAGw5G2940IYjGrXdda3r9e8qG7vyK+ENE9HRMhtBRlaeH9h/MqNVPMAYYsc8HZrvUEbt3o3N6eI91Dfk1ttRz6OZ4maH9H96ps+NA5Xf+Vd6n0/RqQl7WQsjumE99Z8H4ji0vrj8N4qWbfncyKHoHR+60Itgvi/TzJmn6P79CIl1riAeCynpBtWJWdo72O540IQ3P8AkFX9mKKGJYujfOAGwQmYP4eZM0Pp59KaENMbe5/Nf3FsaDGpKPg/hZniZofTz6U0IaOeTwnGGDUlHwepGQggtelA6AH5GJIdhC7YmaH08+lOtC5gbXXF1AgTLw42pWZriPjV6AKAUAlvVlpSyl2lTw7J50c8nhOMMGpKNGvCwROQohfWoqUysi7L3V94gNUCCFUIztXfiEpbfJsHBDv3ZYQaryEs1alnDCDMKVgcYJ9o/U+0fqPx9jtAXWAj1JmlKItpbi8i9rMzADqXKk9cCNByXjNpaFwCt/nHlgmqe5MUJLHcStD30nRo55PCcYYNSUdI65KJT91618LrBjeK4NlOQ27LekC3ZDbcC3gFCPQEW20F0LB6WZM0Pp59KNq3QpORHhEE8SloMcEoQbgdsb7w/CDHiqBsDazgNofWrHb1o6q6OeTwnGGDUlGmqEoWrGzArcPQbiNbMSxRdU7qtbsQIAiEh3TZW8VbeUV5JoxagQ2hjYBpqNiOAmoAGltV9sMxe7Y239piE0w91Ythk22bNm/voaENXTwnGGDUlHwenbqLoYXubd7fefR/3n1f94bN/t1gQNAFtVekfbz6QgraCdgq0O1n5hyT4K61wd4W7g5BwiZ0csnhOMMGpqPg0fQjpYjuvJYdEzslEkOwCy7p0mL1KHS0DYFywm7UvUK+kQKbXYzBYDqFAGVli4oKpSd0vgkbSQ2W7R4Fu3eARp7wVQdtHLJ4TjDBq6jVahl7P6HC+28ojsF3myqu7BkOwlHZL2VSuZv8PI/NrwuHMdpMEl7ohHMpJ5QZYJug7PXXfvdiPDFgJpH38+ldSENjk2I74d8XFtO+s6WCorsOzFDyWmEbbQeVZnOHJIA7qS9PLJ4TjDBqSjfVqEZe7OYw7lYjLffbaVCuSqsF5LR2qb+TG8TmsvG8oFdlVSqwWDvfpZmkffz6U0IaWWTwnGGDUlHdIMkD7MfB4gkTkajazn9lWbTgWyqrao2hy+6qN9LTuKbdGCf6T/sLj8z/ALCWoADoaVbNOLRE+Qjt35n/AGf7T/su2RxS235XQ0IaWWTwnGGDU1HwemmymFTfdHfOedUbM2XlKFEAK50j6+fSvKMKVtIC1vRdvYZeA1ZC0o7gm43tE7WwGLXAADbd33hAKSKVqg4EprSyyeE4wwauo+DTEgsx8LzFEQALV4j0oaUBftpsm027uTd/uf7OeaXvlpSFCwbp0qiJZQR2AnbHM461nToU+CIB0avFjCGEKgfKEC3IUQEEBueWy1Ux4X0nRpZZPCcYYNGW2b4NCvPiounNvXuXcLmTS0fY207Sr7oZihG1iu+d5Svm3cBeyB1KhWS5EXQEsrSPr59IdFt/J+opFdArqoAtpS7QPdauDFELMDmCpKqsk2o5VbXSyyeE4wwaMvlx8GgtdYFPU7CjkYjgbKoRGQAXpBYLerQI2tR2ztpdg9AGf4WUP15vROmkYK1eNuXaDW18TEaDBvJd3Ab7UgvauNDQhpZZPCcYYJ9Z1z5cfBpvUdQKeIglO5NyKXQBpt6BsAOLSfef1CGxffpCQAAAcGkf0/36VX1FaBHBGbIZaT8IrIB2JzS08y/ThbBpZZPCcYYJ9Z1z5MXB6RB4Um2OLX5n+zL/AGZE5veTJJAFuXSqopb1sGw3cwmqhQoU2EEwvquwlrFyDVoC+pYbRG/xnkij7D3dIBUW7uVFB7XAAKMGBgNLLJ4TjDBoy+bFwaZnka+Au8cgSzUB1vpB2O6XvCnbQgV5fUNspWOdBnN9iQpJA2Ta9oE203A/3AtBJkFGLiv0Pe9g3l7EYiMrHDDRbAYI9kyvrUSmWxw3EsBiyUWMoJpZZHCcYYNO3yY+DS9XatEAosDnvN2HObVe9RQroIBSknRoGs0gkbIAbVs4BU+t/qfW/wBR/wC//nNqEtqSknh8EvYELQbHMHu+93n179wpi4JH3NDQhrKOE4wwadvmxcGjWGQSqWBtKSsy1AiqpGzexCGKekr3I9ZyJulx0HTZTN2SutLPsP7jftfMYqNjUk8PglYlQ6AO47ZibL/TpPuH6lsSaO420G2dDQhrKOE4wwaZvkx8HqADJSqulpPq36hsfa7QgwAIDieHwT6zoemJDspAW8oIu3eDuTXIXoAwebgCR4U7+KNgooh8l2pEAQbDQGumso4TjDBo2+XHwekwUQVjroWn+Hj/AC8C5PJjcBoVuWeHwRCuiuVtn2irVeDH+Hj/AAsbSjUTRwnCGjLC1vZXbn8MdqbjS+AfkdZRwnGGDRt8uPg0fs5+gG6rAh7YgHlg/tVXXyMmmy4G+9X0VjTdb8I4DlVi54/BPrOh6ZoAFLML2QT2iINDvdcXz953KUtWyizzDX2kCqq2qu6ry6yjhOMMGjb5cfBo+LjyPyBfhdYUxoCxVpOzvCuGMUsQetK/mMxTBrPfemqxY/i8ybGNmpyTx+CZEcXXrXW+Lhw1d/8AtK++/uZkt20M9qyxWhoQ1lHCcYYNG3y4+DRXSA3WFDdIAFROW+7ZiVapZu5gisD+6oEWhq1WNAyTQ9HWlxsz7J+43DfbrCWCLCczx+CfWdD0z1R4oCWfUFUVdD1remmENZZwnGGDRN8uPg9QYVKEldLSfWv1D/e+IAEKConj8ERp9rm6mwod8wVLvGsEEHUAqdZy9MweoS+v6oQ1tnCcYYNI3y4+D0rXSBjfsan0n9z6T+4b9v8A3m5C0Vrazx+CfWdD015X/wAXJ7KCPAsZbehS7rlraENLPO4TjDBpG+XHwaVW1oWjFAnuSLCoG7Y3iqzfFZh5aqSThoGu9aI1L5FHCJVVxoY5vtQVWR3VYueHwSuuYdgBa92Aon9us+4fuXk/p6jTSbZNDQhpZ5nCcYYNI3y4+DRvgl3Hq91qA8E7wooGQ92PEAaBNMgWD4ViuuDV7ey/E/xJf4kncXtK4Elqck8PgiZVYFjsT7lfE+1fqCTvAUGhoQ0c8zhOMMGkb58fBpkw9UFz3xw4zmO+Ir3taTuKNcy6OErbam9Bn30rbcqmyXTxY/ifXv3GYX7dYiApCck/gE+86HpjzipB57bO0RZBfhRoAAXwBN7xRoIlFcAXW0UaOGz2DlCl81o553CcYYNI3z4uD1Wo+LBn+Hn/AJ3NkL+ASxVSkKtsgmIu2tqZNhgQElnUd0NGWGC8MuxZ2sSMeJwxQmvcT20887hOMMGgb58XB6dh6KU47A1SpTx4FXQC25/An3nQ9MeA6xBdwAshEvJ7wUaNhA6WI12htTqoDxo553CcYYNA3z4+DVNtBUksA3V6ErHkZixQLO5oOEVUbZ3va2rap/tJ5ye+QCY7pCrZ/AjLh3YC7F7XzMMB5z/tZA6758bVZraudDQho553CcYYNA3z4uDUWG5fT1KoKU2Qr1LnbkpoN9KJ19225OFKLCyuOOfEn2nQ9M2dM2uC0A5VQPMt7wOoF2W2BaejAm2XPpZYtimjqSmfYNRlAcIiaOedwnGGDRN8+Lg1fu+QWKjtTcDmoGF/QWtuNAzXe9LFZ5bbJfwz/af+ReF93/kRK0h6k/iS+eyb5EB19oLYmsQoTWsFUHWi0PAoiQDY+RLg4ybwlx67g6B1nzuqKcs7hOMMGqbrg/iS/jT7ToemObhYDzsG3pxHQoI6ZbFnkgPCJ1ATZYAeHMpWgKkig8F0eNHLM4TjDBqm64PSUARYGjsBzq3rmxBlt4AT+JCm3lFq6GO7KQ/b7T63+oEq1SINNOe46GhDRyzuE4wwasuuDR3dnJ2C3unNDUXiIDvFgmVJzAZjtZES9tnbQDyot1ebUrxou5rxEHQWNVbP4s+06HpjQho5I3CcYYNGXy4uDQfoqvKpQdVIV2WfFLK97n5kpTZJdvelJ9uff/yn3f8AKKzT7dI01hsLumfxZ9p0PTE5CQpVSwmHdT1qDooyKFTLg36HzCyhfSaojc5diMtqrnYF5QavtrxOE4wwaEvnxcGikLwinZd5ZzwbEX5hk2oQ7XVhxL02JAWVkADze+lRlwWy64Omh2Jo31iCfx5m3ZUurG5vklsRB2EHZQGpETAm5AE6MtuBfAKvYjfklitWrgAbcIQJyWMILyWj2jvUuYWgOo060ThOMMGhL58XB/EF/Hn0nQ9MgiJY5GbY0vKohHW5+mVkLG4AoDoGlmicJxhg0JfNi4PSEOCWbpbWz3Z90/c+6fuHx9zvCeoAOhP48uCpi+B2dtveI2Hpl1+pLR3bbbCjb20NCGjlm8Jxhg1JVcGj7tlM9Ad1oPMsQlIMsBdYFtaKgAJ3ULaVCNKWZL0r2sEF1sroAPlJijsFlMz+PPpOh6Ygg6xHYEAe7b+O8vV4CAwyltJeAuPduREUeEdXTwnGGDQl82Lg0RwqcYb8Bre46a4TTFWFt+o3e296yy884NOBLAbpn8aEq237kwa2viD2OaksrC0A7hy1lLo23TLwDutB5lKyunCrPageO8+d9CadPCcYYNCXzYuDQOYhe+LgbczZCLGB3Aooqd6olyaocewAqgAd9MTjKerrLBOzNZggkddILKn8KfSdD0wcAEtGzDsnWHEfbKpW48A7d5UBXacFhbiBY9My7NKtwkrgtxp5JPCcYYNaUXB6VaY6LU/xE/xE/wDKJulfwoUqszeFNgVzK46dOkMbKNsNbgJjQ0Ia+nhOMMGpKLg9JY6BOgcW+XUro+AkDgAAcE/hT6ToemUCqAbqy9KcAFhQkqhKz7w19PCcYYNaUXBpsXLjqi8wCXggQ2ZwWuw7CI3vRTGfjXY4YA3VY0qkwSQurZvo6NyxFWSAVyz+FDrBYqjBP+UJ/gJ/gIOARdgBN16+oe8Y2x3WWsyC22aWVBhpu5R2FRXMu2CBFzA8F0dtfTwnGGDUlHwaIdZaWo2FimN9842lQ0oyql2zsd+Z9n1SrFSrH52GfOuLHz5KyuG4B2ufwpV1MChSWPcIqy316T6r+p9N/UG/4DUYTaVl7T3UCtU3VbO0S5UndlodG29btSoMNN3FOyihJcsGFBxA8NWdtbTwnGGDUlHwaLtXoMApRsq62lNF+C4DlVti+0TvYRd2AMF0Bzn1Bfwp9J0PTEaENoB8oUBKsCo+8NfTwnGGDUtHwfxRfwpvM+wemNCGvJ4TjDBqWj4P4KYbJuFcpyvB7vcnklca6HQ7E7TkCgt035z6xDfJZu/U6jw+g0IaeWTwnGGCIR/0kfuAZwf7zMHr+FtALZb+Bul8eDHtCBUIi7xDpYWGehj4TYfhr5lJOmpoQ093bcAUk4wwQAOHPiOjI9wX5Edn15OWHymzb2hggnIuU5jw/FOtIl9TQhNweJ5i72f7OZ6DBKCdYXzRB2D+tgCje3rNkAgeRgmu8fPh+8jFwYtN2MIQv3OOF7Z9jrGy6mhCAttDs+OfiFSmX+z/AMYYIYlkxwMRwWsfYJrewrY9OPj+vWllSnTfRbv7O06eIe4+R+J2PIu/qEDyuxDsce/4hwMA5Xq9X0WaEui45KlP0BfwK95lAAPCXXsUe0MOl0HYmmzlm57EH2jCtyh4mh/bxACnrM0xDEerHW3eCd/QaEJV4+YFvunjbH4DwpuaR0FomWNNCl3GB+zlFnBsF8n37vBEs/go6eo0O5jhRUueKOrex3e02oIAYAUPYbeVdSFHozsmRDZHJEs6rfJ8upZ6N/AdPHQ/8g2WfykG5l7LWDh9/EWOQent7GPy6T8WpBRrU0Nn5ESoWA8JB6jKCjMo+XuJw5ZX9nWALH+QBVn/AC+dX+4IoVv2n5ne/wBIYAAOmq0em401+7LN6RMIm4nUihZiLfwGPHbqEG0ILQNOu2fJFTc03l5eXl5eXmyVNiUZq0C1fQDddiWb9+e6OO3breIYUKPR6beq/R7csj3dwLrhbuj3mHJlH8cv2DzD5ehuPssg9B6qyWck75O8Tvk7SJUz3bvtBz1c28MnsSytvTfjJ9x4l9MKVunQ4HYCWYx6Lwo9aXLZ2dPqnvL9BylvNi/e4Rsbxa/J/uLtv3hSCdf2B/vSPtdvw8cCp9MUS0I5P4SDLuCfIt33YcAlnoqCv4gdLtTsRZLdJT0lMp6S3SCYT2dVogV/IgwGdiPbHtnjPGeMO2HZDQCQB/8ADRKdJ2vRVWUdP4//2Q==;" vertex="1" parent="7">
                    <mxGeometry x="410" y="40" width="101" height="292.94" as="geometry"/>
                </mxCell>
            </root>
        </mxGraphModel>
    </diagram>
</mxfile>